<svg width="270" height="88" viewBox="0 0 270 88" fill="none" xmlns="http://www.w3.org/2000/svg">
<path d="M27.9875 53.6102V78.548L36.546 87.6822L45.1107 78.548V53.6102L36.5491 62.6718L27.9875 53.6102Z" fill="#434343"/>
<path d="M3.57764 1L20.1233 18.15H27.9876V26.3013L36.5492 35.1758L45.1108 26.3013V18.15H52.9751L69.5208 1H3.57764Z" fill="#434343"/>
<path d="M35.4873 36.7837V58.9358L26.9257 49.8743L17.7437 40.1566V77.484L0 58.9619V0L16.4836 17.086L17.7437 18.3922L23.1381 23.9833L26.9257 27.9092L35.4873 36.7837Z" fill="#AD00FF"/>
<path d="M72.4873 0V58.9619L54.7437 77.484V40.1566L45.5616 49.8743L37 58.9358V36.7837L45.5616 27.9092L49.3492 23.9833L54.7437 18.3922L56.0037 17.086L72.4873 0Z" fill="#AD00FF"/>
<path d="M100.702 27.7459V49H95.9581V27.7459H100.702ZM107.169 27.7459V31.4391H89.6227V27.7459H107.169ZM123.971 45.3214V49H112.658V45.3214H123.971ZM114.278 27.7459V49H109.519V27.7459H114.278ZM122.511 36.3001V39.8619H112.658V36.3001H122.511ZM123.985 27.7459V31.4391H112.658V27.7459H123.985ZM135.138 31.7895L129.649 49H124.569L132.437 27.7459H135.649L135.138 31.7895ZM139.692 49L134.189 31.7895L133.62 27.7459H136.875L144.772 49H139.692ZM139.459 41.0881V44.7667H128.379V41.0881H139.459ZM148.816 27.7459H152.757L157.866 42.942L162.961 27.7459H166.902L159.458 49H156.261L148.816 27.7459ZM146.539 27.7459H150.553L151.297 43.4967V49H146.539V27.7459ZM165.165 27.7459H169.194V49H164.421V43.4967L165.165 27.7459Z" fill="#434343"/>
<path d="M175.004 27.7459H178.945L184.054 42.942L189.149 27.7459H193.09L185.646 49H182.449L175.004 27.7459ZM172.727 27.7459H176.741L177.486 43.4967V49H172.727V27.7459ZM191.353 27.7459H195.382V49H190.609V43.4967L191.353 27.7459ZM208.009 31.7895L202.52 49H197.44L205.309 27.7459H208.52L208.009 31.7895ZM212.564 49L207.06 31.7895L206.491 27.7459H209.746L217.643 49H212.564ZM212.33 41.0881V44.7667H201.25V41.0881H212.33ZM227.526 27.7459V49H222.782V27.7459H227.526ZM233.993 27.7459V31.4391H216.446V27.7459H233.993ZM250.795 45.3214V49H239.481V45.3214H250.795ZM241.102 27.7459V49H236.343V27.7459H241.102ZM249.335 36.3001V39.8619H239.481V36.3001H249.335ZM250.809 27.7459V31.4391H239.481V27.7459H250.809ZM264.151 43.3945C264.151 43.0345 264.098 42.7133 263.991 42.4311C263.884 42.1391 263.689 41.8715 263.407 41.6282C263.125 41.3849 262.726 41.1416 262.21 40.8983C261.694 40.6453 261.018 40.3874 260.181 40.1247C259.227 39.8133 258.317 39.4629 257.451 39.0736C256.595 38.6746 255.831 38.2124 255.159 37.6869C254.488 37.1614 253.957 36.5483 253.568 35.8476C253.189 35.1469 252.999 34.3294 252.999 33.3952C252.999 32.4901 253.198 31.6727 253.597 30.9428C253.996 30.2129 254.556 29.5901 255.276 29.0743C255.996 28.5488 256.843 28.1498 257.816 27.8773C258.789 27.5951 259.86 27.454 261.027 27.454C262.585 27.454 263.952 27.7313 265.129 28.286C266.317 28.831 267.241 29.5998 267.903 30.5925C268.565 31.5754 268.896 32.7188 268.896 34.0229H264.166C264.166 33.4487 264.044 32.9427 263.801 32.5047C263.567 32.0571 263.207 31.7067 262.721 31.4537C262.244 31.2007 261.645 31.0742 260.925 31.0742C260.225 31.0742 259.636 31.1812 259.159 31.3953C258.692 31.5997 258.337 31.8819 258.093 32.242C257.86 32.6021 257.743 32.9962 257.743 33.4244C257.743 33.765 257.831 34.0764 258.006 34.3586C258.191 34.6311 258.453 34.889 258.794 35.1323C259.144 35.3659 259.573 35.5897 260.079 35.8038C260.585 36.0179 261.164 36.2223 261.816 36.4169C262.954 36.777 263.962 37.176 264.837 37.6139C265.723 38.0518 266.467 38.5481 267.071 39.1028C267.674 39.6576 268.127 40.2852 268.428 40.9859C268.74 41.6866 268.896 42.4797 268.896 43.3653C268.896 44.3093 268.711 45.1462 268.341 45.8761C267.981 46.606 267.455 47.2288 266.764 47.7446C266.083 48.2507 265.266 48.6351 264.312 48.8978C263.358 49.1606 262.293 49.292 261.115 49.292C260.045 49.292 258.989 49.1557 257.947 48.8832C256.906 48.601 255.962 48.1728 255.115 47.5986C254.279 47.0245 253.607 46.2946 253.101 45.409C252.605 44.5137 252.357 43.4529 252.357 42.2267H257.115C257.115 42.869 257.208 43.414 257.393 43.8617C257.578 44.2996 257.84 44.6548 258.181 44.9273C258.531 45.1998 258.955 45.3944 259.451 45.5112C259.947 45.628 260.502 45.6864 261.115 45.6864C261.825 45.6864 262.4 45.589 262.838 45.3944C263.285 45.19 263.616 44.9127 263.83 44.5623C264.044 44.212 264.151 43.8227 264.151 43.3945Z" fill="#AD00FF"/>
</svg>
