<svg width="73" height="88" viewBox="0 0 73 88" fill="none" xmlns="http://www.w3.org/2000/svg">
<path d="M27.9875 53.6102V78.548L36.546 87.6822L45.1107 78.548V53.6102L36.5491 62.6718L27.9875 53.6102Z" fill="white"/>
<path d="M3.57764 1L20.1233 18.15H27.9876V26.3013L36.5492 35.1758L45.1108 26.3013V18.15H52.9751L69.5208 1H3.57764Z" fill="white"/>
<path d="M35.4873 36.7837V58.9358L26.9257 49.8743L17.7437 40.1566V77.484L0 58.9619V0L16.4836 17.086L17.7437 18.3922L23.1381 23.9833L26.9257 27.9092L35.4873 36.7837Z" fill="#AD00FF"/>
<path d="M72.4873 0V58.9619L54.7437 77.484V40.1566L45.5616 49.8743L37 58.9358V36.7837L45.5616 27.9092L49.3492 23.9833L54.7437 18.3922L56.0037 17.086L72.4873 0Z" fill="#AD00FF"/>
</svg>
